<svg width="75" height="75" viewBox="0 0 75 75" fill="none" xmlns="http://www.w3.org/2000/svg">
<circle cx="37.5" cy="37.5" r="37.5" fill="#0C6525"/>
<path d="M38 13C24.1991 13 13 24.1991 13 38C13 51.8009 24.1991 63 38 63C51.8009 63 63 51.8009 63 38C63 24.1991 51.8009 13 38 13ZM38 14.0417C51.238 14.0417 61.9583 24.762 61.9583 38C61.9583 51.238 51.238 61.9583 38 61.9583C24.762 61.9583 14.0417 51.238 14.0417 38C14.0417 24.762 24.762 14.0417 38 14.0417ZM52.0869 21.3333V21.3354C52.07 21.3345 52.053 21.3345 52.036 21.3354C51.9074 21.3416 51.7857 21.3952 51.6943 21.4859L48.5693 24.6109C48.5008 24.6793 48.4527 24.7654 48.4305 24.8595C48.4082 24.9537 48.4126 25.0522 48.4431 25.144L48.8622 26.4013L45.5907 29.6728C43.3441 27.6036 40.3551 26.3301 37.0641 26.3301C30.108 26.3301 24.4583 31.9796 24.4583 38.9359C24.4584 45.892 30.108 51.5417 37.0641 51.5417C44.0203 51.5417 49.6719 45.892 49.672 38.9359C49.672 35.6449 48.3968 32.6554 46.3272 30.4093L49.5987 27.1378L50.856 27.5569C50.9478 27.5874 51.0463 27.5918 51.1405 27.5695C51.2346 27.5473 51.3207 27.4992 51.3891 27.4307L54.5141 24.3057C54.5769 24.243 54.6226 24.1652 54.6469 24.0798C54.6712 23.9943 54.6733 23.9041 54.6529 23.8177C54.6325 23.7313 54.5904 23.6515 54.5304 23.5859C54.4705 23.5204 54.3949 23.4712 54.3106 23.4431L52.9943 23.0057L52.5569 21.6894C52.5237 21.5895 52.461 21.502 52.3771 21.4385C52.2932 21.3749 52.192 21.3382 52.0869 21.3333ZM51.8346 22.8206L52.0889 23.5835C52.1145 23.6603 52.1576 23.73 52.2148 23.7872C52.272 23.8444 52.3418 23.8875 52.4185 23.9131L53.1815 24.1674L50.8805 26.4684L49.8713 26.1327L49.5336 25.1216L51.8346 22.8206ZM37.0641 27.3738C40.0731 27.3738 42.802 28.5281 44.8583 30.4072L43.367 31.8985C41.6352 30.3443 39.3911 29.483 37.0641 29.4795C35.822 29.4795 34.5921 29.7241 33.4445 30.1994C32.297 30.6748 31.2543 31.3715 30.376 32.2498C29.4977 33.128 28.801 34.1707 28.3256 35.3183C27.8503 36.4659 27.6057 37.6958 27.6057 38.9379C27.6062 41.4461 28.6029 43.8514 30.3767 45.6247C32.1504 47.3981 34.5559 48.3943 37.0641 48.3943C39.5723 48.3943 41.9778 47.3981 43.7516 45.6247C45.5253 43.8514 46.522 41.4461 46.5225 38.9379C46.5185 36.6116 45.6573 34.3684 44.1035 32.637L45.5948 31.1437C47.4745 33.1996 48.6303 35.9289 48.6303 38.9379C48.6303 45.331 43.4573 50.502 37.0641 50.502C30.671 50.502 25.5 45.331 25.5 38.9379C25.5 32.5447 30.6709 27.3738 37.0641 27.3738ZM37.0641 31.5811C38.8344 31.5843 40.5443 32.2257 41.8798 33.3878L40.3926 34.875C39.4541 34.1051 38.278 33.6838 37.0641 33.6828C35.6707 33.6832 34.3345 34.237 33.3494 35.2225C32.3642 36.208 31.8109 37.5445 31.811 38.9379C31.8114 40.331 32.365 41.6669 33.3501 42.652C34.3351 43.637 35.671 44.1906 37.0641 44.191C38.4576 44.1911 39.794 43.6378 40.7795 42.6527C41.765 41.6676 42.3189 40.3313 42.3193 38.9379C42.3183 37.725 41.8978 36.5497 41.1291 35.6115L42.6204 34.1202C43.7807 35.4572 44.4199 37.1677 44.4209 38.9379C44.4205 40.8887 43.6452 42.7595 42.2655 44.1387C40.8859 45.518 39.0149 46.2927 37.0641 46.2926C35.1133 46.2927 33.2423 45.518 31.8627 44.1387C30.4831 42.7595 29.7078 40.8887 29.7074 38.9379C29.7073 37.9718 29.8976 37.0151 30.2673 36.1225C30.637 35.23 31.1789 34.4189 31.862 33.7358C32.5452 33.0526 33.3562 32.5107 34.2488 32.141C35.1413 31.7713 36.098 31.5811 37.0641 31.5811ZM37.0641 35.7844C37.7203 35.786 38.3597 35.9922 38.8931 36.3744L37.3286 37.939C37.2421 37.916 37.1579 37.8861 37.0641 37.8861C36.4837 37.8861 36.0143 38.3575 36.0143 38.9379C36.0143 39.5183 36.4837 39.9877 37.0641 39.9877C37.6445 39.9877 38.116 39.5183 38.116 38.9379C38.116 38.8462 38.0852 38.7625 38.0631 38.6775L39.6296 37.1089C40.0111 37.6425 40.2167 38.2819 40.2176 38.9379C40.2173 39.774 39.8848 40.5757 39.2935 41.1667C38.7021 41.7576 37.9002 42.0895 37.0641 42.0894C36.2284 42.089 35.427 41.7569 34.8361 41.1659C34.2452 40.575 33.913 39.7736 33.9127 38.9379C33.9125 38.1018 34.2444 37.2999 34.8354 36.7086C35.4264 36.1172 36.2281 35.7848 37.0641 35.7844Z" fill="white"/>
</svg>
